<svg width="32" height="18" viewBox="0 0 32 18" fill="none" xmlns="http://www.w3.org/2000/svg">
<path d="M19.4891 0.767179L19.3332 6.75122L12.973 15.298L12.9701 15.3008L11.9787 16.633L12.1347 10.6458L19.4891 0.767179Z" fill="url(#paint0_linear_205_57)"/>
<path d="M31.1831 0.980184L30.7509 17.5713L23.6589 17.3865L23.829 10.8582L31.1831 0.980184Z" fill="url(#paint1_linear_205_57)"/>
<path d="M19.6894 0.501583L18.7462 1.28201L18.7436 1.28451C18.7341 1.29069 18.7253 1.29801 18.7176 1.3063L18.7147 1.30623L0.593444 16.3105L0.590549 16.3104C0.58196 16.3185 0.576335 16.3242 0.573437 16.3241L0.57337 16.3267C0.569403 16.3292 0.56557 16.3318 0.561879 16.3347L-2.37743e-06 16.8015L1.46482 14.8362C1.47091 14.8251 1.4795 14.817 1.4853 14.8046L12.2781 0.308487L19.6894 0.501583Z" fill="url(#paint2_linear_205_57)"/>
<path d="M19.6894 0.501583L19.4892 0.767268L12.135 10.6456L7.41108 16.994L1.43141e-05 16.8009L0.590549 16.3104L0.593444 16.3105L18.7147 1.30623L19.4915 0.664297L19.6894 0.501583Z" fill="url(#paint3_linear_205_57)"/>
<path d="M31.3169 0.804562L31.1852 0.913151L30.0157 1.88283L30.0127 1.88565L30.0012 1.89369C29.9982 1.89907 29.9956 1.899 29.9926 1.90181C29.9896 1.90462 29.9896 1.90462 29.9871 1.90456L29.987 1.90744L29.964 1.92386C29.9538 1.93007 29.9442 1.93723 29.9354 1.94526L23.932 6.91737L19.2274 10.8127L12.5935 16.3006L12.5704 16.3225C12.5624 16.3304 12.5538 16.3377 12.5447 16.3443L11.9743 16.8154L11.6274 17.1055L11.979 16.6332L12.9701 15.3013L12.9731 15.2985L19.3333 6.75133L23.9055 0.611466L31.3169 0.804562Z" fill="url(#paint4_linear_205_57)"/>
<path d="M31.3169 0.804562L31.1834 0.979867L23.8296 10.8585L19.0596 17.2667L19.0391 17.2983L11.6274 17.1051L11.9743 16.815L12.5935 16.3003L19.2275 10.8111L23.932 6.91737L29.9351 1.94493L29.9637 1.92353L29.9667 1.92072L29.9867 1.90712L29.9867 1.90455C29.9893 1.90462 29.9894 1.90173 29.9923 1.9018L31.1848 0.913142L31.3169 0.804562Z" fill="url(#paint5_linear_205_57)"/>
<g style="mix-blend-mode:multiply" opacity="0.24">
<path d="M19.4892 0.767171L19.3506 6.08658L12.12 11.2238L12.1351 10.6464L19.4892 0.767171Z" fill="url(#paint6_linear_205_57)"/>
</g>
<g style="mix-blend-mode:multiply" opacity="0.24">
<path d="M31.1831 0.980184L31.0462 6.23769L31.0031 6.26867L23.8155 11.3775L23.8289 10.8611L31.1831 0.980184Z" fill="url(#paint7_linear_205_57)"/>
</g>
<g style="mix-blend-mode:overlay">
<path d="M18.7147 1.30619L0.593477 16.3104C0.590504 16.3133 0.590583 16.3104 0.590583 16.3104C0.671192 16.2342 0.923961 16.0061 1.31462 15.6552C1.79972 15.2291 2.48358 14.6072 3.3215 13.8856C4.1594 13.1641 5.13249 12.3125 6.18912 11.4205C7.24362 10.5232 8.3773 9.58053 9.51265 8.63499C10.0804 8.1664 10.6507 7.69787 11.2124 7.23746C11.7741 6.77706 12.3317 6.32778 12.866 5.89201C13.9405 5.02128 14.9597 4.22807 15.8249 3.53517C16.6901 2.84226 17.4281 2.29305 17.938 1.89452L18.7147 1.30619Z" fill="url(#paint8_linear_205_57)"/>
</g>
<g style="mix-blend-mode:overlay">
<path d="M29.2371 2.46888C29.5776 2.21231 29.8179 2.03144 29.9352 1.94495L23.932 6.91737L19.2275 10.8128L12.5935 16.3006C12.6883 16.2138 12.9235 16.002 13.2687 15.6897C13.7338 15.2798 14.3906 14.6822 15.1952 13.988C15.9998 13.2939 16.9314 12.4769 17.9469 11.6175C18.9624 10.758 20.0491 9.85069 21.1358 8.94305C21.6834 8.49062 22.2307 8.04075 22.7697 7.59965C23.3087 7.15855 23.8442 6.72507 24.36 6.30808C25.3917 5.47186 26.3737 4.70945 27.2043 4.04646C28.0349 3.38347 28.7474 2.84996 29.2371 2.46888Z" fill="url(#paint9_linear_205_57)"/>
</g>
<g style="mix-blend-mode:screen" opacity="0.4">
<path d="M29.9939 1.90202C29.9939 1.90507 29.9908 1.90499 29.988 1.90764L29.9637 1.925C29.971 1.91736 29.9792 1.91062 29.9881 1.90492C29.9908 1.90499 29.9909 1.90194 29.9939 1.90202Z" fill="url(#paint10_linear_205_57)"/>
</g>
<g style="mix-blend-mode:multiply" opacity="0.25">
<path d="M19.6894 0.501583C19.6224 0.600623 19.5555 0.696455 19.4885 0.792607C19.0686 1.40211 18.6433 2.00569 18.2208 2.61224C17.7311 3.31461 17.2306 4.01124 16.7301 4.70788C15.7344 6.10128 14.7304 7.48902 13.7183 8.87108L12.1918 10.9407L12.125 11.0311L12.135 10.6462L7.41108 16.994L1.43141e-05 16.8009C1.2347 16.7798 2.47147 16.7899 3.70869 16.7829L7.31681 16.8153C7.79994 16.1433 8.29161 15.4772 8.77724 14.8081L10.3011 12.7413L11.8371 10.6773L13.38 8.62186C14.4118 7.25443 15.4543 5.89379 16.5076 4.53999C17.0301 3.86351 17.5525 3.18413 18.0861 2.51372C18.6198 1.84331 19.1475 1.16664 19.6894 0.501583Z" fill="url(#paint11_linear_205_57)"/>
</g>
<g style="mix-blend-mode:multiply" opacity="0.25">
<path d="M31.3169 0.804562C31.273 0.870501 31.2293 0.936448 31.1829 0.999433C30.7457 1.64186 30.2941 2.27847 29.8483 2.91522C29.3618 3.61767 28.8584 4.31423 28.3604 5.01093C27.3649 6.40434 26.3601 7.79205 25.3461 9.17407L23.8196 11.2437L23.8296 10.8588L19.0596 17.267L19.0391 17.2986L11.6274 17.1055C12.8647 17.0844 14.0989 17.0944 15.3358 17.0875L18.9481 17.12C19.4283 16.4479 19.9197 15.7818 20.4056 15.1127L21.932 13.0459L23.4642 10.9815L25.0071 8.92611C26.0384 7.5578 27.0809 6.1972 28.1344 4.84423C28.6569 4.16775 29.1795 3.48839 29.7158 2.81804C30.247 2.14307 30.775 1.46962 31.3169 0.804562Z" fill="url(#paint12_linear_205_57)"/>
</g>
<g style="mix-blend-mode:multiply" opacity="0.25">
<path d="M31.0651 5.51167L30.7508 17.5721L23.6592 17.3873C24.2513 17.3665 24.8435 17.3595 25.4357 17.3498C26.0278 17.3402 26.6169 17.3386 27.2083 17.3344C28.322 17.3329 29.4314 17.3448 30.5456 17.36C30.5616 16.4245 30.5805 15.4887 30.6079 14.5506C30.6366 13.5457 30.6686 12.5406 30.7115 11.5361C30.7545 10.5316 30.796 9.52935 30.8573 8.52502C30.8817 8.02269 30.9157 7.52093 30.9526 7.01892C30.9676 6.76767 30.9853 6.51938 31.0044 6.26855C31.0235 6.01773 31.0418 5.76239 31.0651 5.51167Z" fill="url(#paint13_linear_205_57)"/>
</g>
<g style="mix-blend-mode:overlay">
<path d="M29.1305 0.747599C28.2576 0.769794 27.3851 0.76632 26.5154 0.777365C25.6711 0.78329 24.8297 0.772603 23.9881 0.770256C23.5603 1.37089 23.1351 1.9719 22.6988 2.56397L21.3463 4.41188L19.983 6.25117L18.6112 8.08479L17.223 9.90673L15.8209 11.7142C15.3509 12.3166 14.8872 12.9221 14.408 13.5159C13.9289 14.1098 13.4596 14.7093 12.9731 15.2975L19.3333 6.75134L23.9055 0.611469L29.1305 0.747599Z" fill="url(#paint14_linear_205_57)"/>
</g>
<g style="mix-blend-mode:overlay">
<path d="M18.4787 0.470089C17.4428 0.493492 16.4079 0.488998 15.3755 0.501259L12.3689 0.48423C11.9469 1.0741 11.5163 1.65797 11.0914 2.2484L9.75076 4.07159L8.39935 5.88904L7.0411 7.69701L5.67017 9.49694L4.28277 11.2855C3.81833 11.8833 3.35973 12.4796 2.88298 13.068C2.41324 13.6592 1.94349 14.2504 1.4652 14.8359C1.47128 14.8248 1.47987 14.8167 1.48567 14.8044L12.2781 0.308538L18.4787 0.470089Z" fill="url(#paint15_linear_205_57)"/>
</g>
<defs>
<linearGradient id="paint0_linear_205_57" x1="332.87" y1="-172.29" x2="321.174" y2="-172.595" gradientUnits="userSpaceOnUse">
<stop stop-color="#7B904B"/>
<stop offset="0.364583" stop-color="#385212"/>
</linearGradient>
<linearGradient id="paint1_linear_205_57" x1="344.709" y1="-178.176" x2="333.014" y2="-178.481" gradientUnits="userSpaceOnUse">
<stop stop-color="#7B904B"/>
<stop offset="0.364583" stop-color="#385212"/>
</linearGradient>
<linearGradient id="paint2_linear_205_57" x1="862.481" y1="-167.241" x2="830.733" y2="-168.068" gradientUnits="userSpaceOnUse">
<stop stop-color="#7B904B"/>
<stop offset="0.364583" stop-color="#385212"/>
</linearGradient>
<linearGradient id="paint3_linear_205_57" x1="862.481" y1="-167.234" x2="830.733" y2="-168.061" gradientUnits="userSpaceOnUse">
<stop stop-color="#7B904B"/>
<stop offset="0.364583" stop-color="#385212"/>
</linearGradient>
<linearGradient id="paint4_linear_205_57" x1="874.109" y1="-166.949" x2="842.361" y2="-167.776" gradientUnits="userSpaceOnUse">
<stop stop-color="#7B904B"/>
<stop offset="0.364583" stop-color="#385212"/>
</linearGradient>
<linearGradient id="paint5_linear_205_57" x1="874.109" y1="-166.945" x2="842.361" y2="-167.772" gradientUnits="userSpaceOnUse">
<stop stop-color="#7B904B"/>
<stop offset="0.364583" stop-color="#385212"/>
</linearGradient>
<linearGradient id="paint6_linear_205_57" x1="331.266" y1="-111.258" x2="319.571" y2="-111.563" gradientUnits="userSpaceOnUse">
<stop stop-color="#7B904B"/>
<stop offset="0.364583" stop-color="#385212"/>
</linearGradient>
<linearGradient id="paint7_linear_205_57" x1="342.943" y1="-110.376" x2="331.247" y2="-110.681" gradientUnits="userSpaceOnUse">
<stop stop-color="#7B904B"/>
<stop offset="0.364583" stop-color="#385212"/>
</linearGradient>
<linearGradient id="paint8_linear_205_57" x1="794.505" y1="-153.116" x2="765.281" y2="-153.878" gradientUnits="userSpaceOnUse">
<stop stop-color="#7B904B"/>
<stop offset="0.364583" stop-color="#385212"/>
</linearGradient>
<linearGradient id="paint9_linear_205_57" x1="772.231" y1="-145.788" x2="744.268" y2="-146.517" gradientUnits="userSpaceOnUse">
<stop stop-color="#7B904B"/>
<stop offset="0.364583" stop-color="#385212"/>
</linearGradient>
<linearGradient id="paint10_linear_205_57" x1="31.291" y1="1.66758" x2="31.2422" y2="1.66631" gradientUnits="userSpaceOnUse">
<stop stop-color="#7B904B"/>
<stop offset="0.364583" stop-color="#385212"/>
</linearGradient>
<linearGradient id="paint11_linear_205_57" x1="862.481" y1="-167.234" x2="830.733" y2="-168.061" gradientUnits="userSpaceOnUse">
<stop stop-color="#7B904B"/>
<stop offset="0.364583" stop-color="#385212"/>
</linearGradient>
<linearGradient id="paint12_linear_205_57" x1="874.109" y1="-166.949" x2="842.361" y2="-167.776" gradientUnits="userSpaceOnUse">
<stop stop-color="#7B904B"/>
<stop offset="0.364583" stop-color="#385212"/>
</linearGradient>
<linearGradient id="paint13_linear_205_57" x1="343.246" y1="-122.525" x2="331.552" y2="-122.83" gradientUnits="userSpaceOnUse">
<stop stop-color="#7B904B"/>
<stop offset="0.364583" stop-color="#385212"/>
</linearGradient>
<linearGradient id="paint14_linear_205_57" x1="719.747" y1="-150.176" x2="693.745" y2="-150.853" gradientUnits="userSpaceOnUse">
<stop stop-color="#7B904B"/>
<stop offset="0.364583" stop-color="#385212"/>
</linearGradient>
<linearGradient id="paint15_linear_205_57" x1="746.494" y1="-147.653" x2="719.072" y2="-148.368" gradientUnits="userSpaceOnUse">
<stop stop-color="#7B904B"/>
<stop offset="0.364583" stop-color="#385212"/>
</linearGradient>
</defs>
</svg>
